<svg width="90" height="90" viewBox="0 0 90 90" fill="none" xmlns="http://www.w3.org/2000/svg">
<path d="M9.84375 63.2812H15.4688V68.9062H18.2812V54.8438C18.2812 51.7416 15.7584 49.2188 12.6562 49.2188C9.55406 49.2188 7.03125 51.7416 7.03125 54.8438V68.9062H9.84375V63.2812ZM12.6562 52.0312C14.2073 52.0312 15.4688 53.2927 15.4688 54.8438V60.4688H9.84375V54.8438C9.84375 53.2927 11.1052 52.0312 12.6562 52.0312Z" fill="#28B24B"/>
<path d="M23.9062 60.4688H26.7188C29.8209 60.4688 32.3438 57.9459 32.3438 54.8438C32.3438 51.7416 29.8209 49.2188 26.7188 49.2188H21.0938V68.9062H23.9062V60.4688ZM23.9062 52.0312H26.7188C28.2698 52.0312 29.5312 53.2927 29.5312 54.8438C29.5312 56.3948 28.2698 57.6562 26.7188 57.6562H23.9062V52.0312Z" fill="#28B24B"/>
<path d="M33.75 52.0312H36.5625V66.0938H33.75V68.9062H42.1875V66.0938H39.375V52.0312H42.1875V49.2188H33.75V52.0312Z" fill="#28B24B"/>
<path d="M18.2812 35.1562H21.0938V37.9688H18.2812V35.1562Z" fill="#28B24B"/>
<path d="M12.6562 35.1562H15.4688V37.9688H12.6562V35.1562Z" fill="#28B24B"/>
<path d="M7.03125 35.1562H9.84375V37.9688H7.03125V35.1562Z" fill="#28B24B"/>
<path d="M46.4062 66.0938H68.9062V43.5938H46.4062V66.0938ZM49.2188 46.4062H66.0938V63.2812H49.2188V46.4062Z" fill="#28B24B"/>
<path d="M66.0938 74.5312H68.9062V77.3438H66.0938V74.5312Z" fill="#28B24B"/>
<path d="M46.4062 74.5312H63.2812V77.3438H46.4062V74.5312Z" fill="#28B24B"/>
<path d="M46.4062 68.9062H68.9062V71.7188H46.4062V68.9062Z" fill="#28B24B"/>
<path d="M46.4062 80.1562H68.9062V82.9688H46.4062V80.1562Z" fill="#28B24B"/>
<path d="M18.2812 74.5312H9.84375C8.29266 74.5312 7.03125 75.7927 7.03125 77.3438V80.1562C7.03125 81.7073 8.29266 82.9688 9.84375 82.9688H18.2812C19.8323 82.9688 21.0938 81.7073 21.0938 80.1562V77.3438C21.0938 75.7927 19.8323 74.5312 18.2812 74.5312ZM9.84375 80.1562V77.3438H18.2812L18.2827 80.1562H9.84375Z" fill="#28B24B"/>
<path d="M35.1562 74.5312H26.7188C25.1677 74.5312 23.9062 75.7927 23.9062 77.3438V80.1562C23.9062 81.7073 25.1677 82.9688 26.7188 82.9688H35.1562C36.7073 82.9688 37.9688 81.7073 37.9688 80.1562V77.3438C37.9688 75.7927 36.7073 74.5312 35.1562 74.5312ZM26.7188 80.1562V77.3438H35.1562L35.1577 80.1562H26.7188Z" fill="#28B24B"/>
<path d="M88.5938 22.5C88.5938 10.8689 79.1311 1.40625 67.5 1.40625C59.4239 1.40625 52.4011 5.97375 48.8587 12.6562H37.1447L34.3322 9.84375H23.6475C23.0653 8.21109 21.5184 7.03125 19.6875 7.03125C17.3616 7.03125 15.4688 8.92406 15.4688 11.25C15.4688 13.5759 17.3616 15.4688 19.6875 15.4688C21.5184 15.4688 23.0653 14.2889 23.6475 12.6562H33.1678L35.9803 15.4688H47.6367C46.8548 17.6723 46.4062 20.032 46.4062 22.5C46.4062 22.9725 46.4527 23.438 46.485 23.9062H42.7711L39.9586 21.0938H29.2739C28.6917 19.4611 27.1448 18.2812 25.3139 18.2812C22.988 18.2812 21.0952 20.1741 21.0952 22.5C21.0952 24.8259 22.988 26.7188 25.3139 26.7188C27.1448 26.7188 28.6917 25.5389 29.2739 23.9062H38.7942L41.6067 26.7188H46.8563C47.0531 27.6694 47.3077 28.6087 47.6381 29.5312H5.625C3.29906 29.5312 1.40625 31.4241 1.40625 33.75V84.375C1.40625 86.7009 3.29906 88.5938 5.625 88.5938H70.3125C72.6384 88.5938 74.5312 86.7009 74.5312 84.375V42.3633C82.8577 39.4102 88.5938 31.4002 88.5938 22.5ZM19.6875 12.6562C18.9127 12.6562 18.2812 12.0248 18.2812 11.25C18.2812 10.4752 18.9127 9.84375 19.6875 9.84375C20.4623 9.84375 21.0938 10.4752 21.0938 11.25C21.0938 12.0248 20.4623 12.6562 19.6875 12.6562ZM25.3125 23.9062C24.5377 23.9062 23.9062 23.2748 23.9062 22.5C23.9062 21.7252 24.5377 21.0938 25.3125 21.0938C26.0873 21.0938 26.7188 21.7252 26.7188 22.5C26.7188 23.2748 26.0873 23.9062 25.3125 23.9062ZM61.0552 29.5312C60.7472 27.7327 60.5616 25.8511 60.5011 23.9062H74.4862C74.4061 26.46 74.1248 28.9209 73.6284 31.1723C72.855 30.1809 71.6639 29.5312 70.3125 29.5312H61.0552ZM49.2905 21.0938C49.5281 18.0028 50.5322 15.1284 52.1198 12.6562H58.7264C58.133 15.1805 57.773 18.0281 57.6872 21.0938H49.2905ZM61.643 12.6562H73.357C73.987 15.0764 74.4047 17.9241 74.5017 21.0938H60.4997C60.5953 17.9241 61.0144 15.0764 61.643 12.6562ZM67.5 4.21875C69.248 4.21875 71.0972 6.30984 72.4613 9.84375H62.5373C63.9028 6.30984 65.752 4.21875 67.5 4.21875ZM85.7095 21.0938H77.3128C77.227 18.0281 76.867 15.1805 76.2736 12.6562H82.8802C84.4678 15.1284 85.4733 18.0028 85.7095 21.0938ZM77.2973 23.9062H85.7222C85.4831 26.955 84.4706 29.8434 82.8647 32.3438H76.23C76.8502 29.7408 77.2102 26.8819 77.2973 23.9062ZM80.6611 9.84375H75.4678C74.8491 8.02266 74.0981 6.43922 73.2347 5.15391C76.0866 6.09891 78.6234 7.72594 80.6611 9.84375ZM61.7653 5.15391C60.9005 6.43922 60.1495 8.02266 59.5308 9.84375H54.3375C56.3766 7.72594 58.9134 6.09891 61.7653 5.15391ZM49.2975 23.9062H57.69C57.7462 25.8412 57.915 27.7228 58.2019 29.5312H50.6742C49.9092 27.7186 49.4466 25.837 49.2975 23.9062ZM5.625 32.3438H70.3125C71.0873 32.3438 71.7188 32.9752 71.7188 33.75V37.9688H26.1366L23.3241 40.7812H4.21875V33.75C4.21875 32.9752 4.85016 32.3438 5.625 32.3438ZM70.3125 85.7812H5.625C4.85016 85.7812 4.21875 85.1498 4.21875 84.375V43.5938H24.4884L27.3009 40.7812H71.7188V84.375C71.7188 85.1498 71.0873 85.7812 70.3125 85.7812ZM74.5312 39.3539V35.1562H80.6358C78.9272 36.9352 76.8628 38.378 74.5312 39.3539Z" fill="#28B24B"/>
<path d="M63.2812 15.4688H66.0938V18.2812H63.2812V15.4688Z" fill="#28B24B"/>
<path d="M68.9062 15.4688H71.7188V18.2812H68.9062V15.4688Z" fill="#28B24B"/>
</svg>
