<svg width="90" height="90" viewBox="0 0 90 90" fill="none" xmlns="http://www.w3.org/2000/svg">
<path d="M84.375 1.40625H22.5C20.1741 1.40625 18.2812 3.29906 18.2812 5.625V26.7188H8.4375C4.56047 26.7188 1.40625 29.873 1.40625 33.75V67.5C1.40625 71.377 4.56047 74.5312 8.4375 74.5312H21.9544L20.0798 80.1562H15.4688C13.1428 80.1562 11.25 82.0491 11.25 84.375V88.5938H53.4375V84.375C53.4375 82.0491 51.5447 80.1562 49.2188 80.1562H44.6077L42.7331 74.5312H56.25C60.127 74.5312 63.2812 71.377 63.2812 67.5V66.0938H84.375C86.7009 66.0938 88.5938 64.2009 88.5938 61.875V5.625C88.5938 3.29906 86.7009 1.40625 84.375 1.40625ZM22.5 4.21875H84.375C85.1498 4.21875 85.7812 4.85016 85.7812 5.625V12.6562H21.0938V5.625C21.0938 4.85016 21.7252 4.21875 22.5 4.21875ZM8.4375 29.5312H56.25C58.5759 29.5312 60.4688 31.4241 60.4688 33.75V60.4688H4.21875V33.75C4.21875 31.4241 6.11156 29.5312 8.4375 29.5312ZM63.2812 37.9688H80.1562V57.6562H63.2812V37.9688ZM50.625 84.375V85.7812H14.0625V84.375C14.0625 83.6002 14.6939 82.9688 15.4688 82.9688H49.2188C49.9936 82.9688 50.625 83.6002 50.625 84.375ZM41.6419 80.1562H23.0456L24.9202 74.5312H39.7673L41.6419 80.1562ZM56.25 71.7188H8.4375C6.11156 71.7188 4.21875 69.8259 4.21875 67.5V63.2812H60.4688V67.5C60.4688 69.8259 58.5759 71.7188 56.25 71.7188ZM84.375 63.2812H63.2812V60.4688H82.9688V35.1562H63.2812V33.75C63.2812 29.873 60.127 26.7188 56.25 26.7188H21.0938V15.4688H85.7812V61.875C85.7812 62.6498 85.1498 63.2812 84.375 63.2812Z" fill="#28B24B"/>
<path d="M25.3125 66.0938H28.125V68.9062H25.3125V66.0938Z" fill="#28B24B"/>
<path d="M30.9375 66.0938H33.75V68.9062H30.9375V66.0938Z" fill="#28B24B"/>
<path d="M36.5625 66.0938H39.375V68.9062H36.5625V66.0938Z" fill="#28B24B"/>
<path d="M29.5312 7.03125H32.3438V9.84375H29.5312V7.03125Z" fill="#28B24B"/>
<path d="M35.1562 7.03125H37.9688V9.84375H35.1562V7.03125Z" fill="#28B24B"/>
<path d="M23.9062 7.03125H26.7188V9.84375H23.9062V7.03125Z" fill="#28B24B"/>
<path d="M23.9062 18.2812H26.7188V21.0938H23.9062V18.2812Z" fill="#28B24B"/>
<path d="M29.5312 18.2812H82.9688V21.0938H29.5312V18.2812Z" fill="#28B24B"/>
<path d="M66.0938 23.9062H82.9688V26.7188H66.0938V23.9062Z" fill="#28B24B"/>
<path d="M66.0938 29.5312H82.9688V32.3438H66.0938V29.5312Z" fill="#28B24B"/>
<path d="M11.25 57.6562H39.375C41.7009 57.6562 43.5938 55.7634 43.5938 53.4375V36.5625C43.5938 34.2366 41.7009 32.3438 39.375 32.3438H11.25C8.92406 32.3438 7.03125 34.2366 7.03125 36.5625V53.4375C7.03125 55.7634 8.92406 57.6562 11.25 57.6562ZM9.84375 36.5625C9.84375 35.7877 10.4752 35.1562 11.25 35.1562H39.375C40.1498 35.1562 40.7812 35.7877 40.7812 36.5625V53.4375C40.7812 54.2123 40.1498 54.8438 39.375 54.8438H11.25C10.4752 54.8438 9.84375 54.2123 9.84375 53.4375V36.5625Z" fill="#28B24B"/>
<path d="M21.1743 52.97L26.7952 36.0895L29.4643 36.9782L23.8434 53.8587L21.1743 52.97Z" fill="#28B24B"/>
<path d="M31.9318 51.6193L38.551 45.0001L31.9318 38.3809L29.9434 40.3693L34.5741 45.0001L29.9434 49.6309L31.9318 51.6193Z" fill="#28B24B"/>
<path d="M20.6819 49.6309L16.0511 45.0001L20.6819 40.3693L18.6934 38.3809L12.0742 45.0001L18.6934 51.6193L20.6819 49.6309Z" fill="#28B24B"/>
<path d="M46.4062 32.3438H57.6562V35.1562H46.4062V32.3438Z" fill="#28B24B"/>
<path d="M46.4062 37.9688H57.6562V40.7812H46.4062V37.9688Z" fill="#28B24B"/>
<path d="M46.4062 43.5938H57.6562V46.4062H46.4062V43.5938Z" fill="#28B24B"/>
<path d="M46.4062 49.2188H57.6562V52.0312H46.4062V49.2188Z" fill="#28B24B"/>
<path d="M49.2188 54.8438H52.0312V57.6562H49.2188V54.8438Z" fill="#28B24B"/>
<path d="M54.8438 54.8438H57.6562V57.6562H54.8438V54.8438Z" fill="#28B24B"/>
</svg>
