<svg width="685" height="535" viewBox="0 0 685 535" fill="none" xmlns="http://www.w3.org/2000/svg">
<path d="M222.773 181.157C230.157 173.768 238.926 167.905 248.576 163.901C258.227 159.897 268.571 157.832 279.016 157.824C289.462 157.815 299.805 159.864 309.453 163.853C319.102 167.841 327.867 173.691 335.248 181.069L972.939 818.073C980.326 825.443 986.186 834.198 990.183 843.835C994.181 853.473 996.237 863.806 996.234 874.242C996.231 884.679 994.17 895.015 990.168 904.659C986.166 914.303 980.301 923.067 972.91 930.449C957.982 945.363 937.745 953.752 916.646 953.773C895.546 953.795 875.31 945.446 860.384 930.561L222.694 293.557C207.8 278.65 199.443 258.44 199.458 237.365C199.473 216.291 207.858 196.075 222.773 181.157Z" fill="#F27D7E"/>
<path d="M279.078 157.782C289.54 157.766 299.9 159.812 309.564 163.803C319.229 167.794 328.009 173.651 335.402 181.039C342.794 188.427 348.654 197.201 352.646 206.859C356.638 216.516 358.683 226.867 358.664 237.32L358.327 686.744C358.324 697.194 356.261 707.544 352.253 717.201C348.246 726.858 342.375 735.634 334.974 743.026C327.573 750.418 318.788 756.283 309.121 760.284C299.454 764.284 289.095 766.344 278.636 766.343C268.176 766.352 257.82 764.301 248.158 760.307C238.496 756.314 229.719 750.456 222.328 743.07C214.937 735.683 209.077 726.912 205.083 717.258C201.088 707.603 199.038 697.256 199.049 686.805L199.222 237.028C199.306 215.951 207.766 195.761 222.742 180.899C237.718 166.038 257.982 157.723 279.078 157.782Z" fill="#4DC1BD"/>
<path fill-rule="evenodd" clip-rule="evenodd" d="M359.775 243.036C359.925 241.043 360.001 239.03 360.001 236.999C360.001 192.817 323.96 156.999 279.501 156.999C235.042 156.999 199.001 192.817 199.001 236.999C199.001 261.794 210.351 283.954 228.169 298.628L359.781 429.793L359.775 243.036Z" fill="#5C72B6"/>
</svg>
