<svg width="873" height="556" viewBox="0 0 873 556" fill="none" xmlns="http://www.w3.org/2000/svg">
<path d="M800.511 371.94C793.111 379.33 784.326 385.19 774.66 389.185C764.994 393.18 754.635 395.231 744.178 395.22C733.721 395.21 723.371 393.138 713.721 389.124C704.071 385.11 695.311 379.232 687.942 371.827L50.3456 -264.975C42.9578 -272.345 37.0977 -281.1 33.1006 -290.738C29.1034 -300.376 27.0473 -310.708 27.05 -321.145C27.0527 -331.581 29.114 -341.917 33.1161 -351.561C37.1183 -361.205 42.9827 -369.969 50.3743 -377.351C57.7588 -384.74 66.5271 -390.604 76.1777 -394.608C85.8283 -398.612 96.1721 -400.677 106.618 -400.685C117.063 -400.693 127.406 -398.645 137.055 -394.656C146.703 -390.668 155.468 -384.817 162.849 -377.44L800.539 259.564C807.927 266.934 813.787 275.689 817.784 285.327C821.781 294.965 823.837 305.297 823.835 315.734C823.832 326.17 821.771 336.506 817.769 346.15C813.767 355.795 807.902 364.558 800.511 371.94Z" fill="#FFCA1A"/>
<path d="M744.127 394.747C733.665 394.763 723.306 392.717 713.641 388.726C703.976 384.735 695.196 378.878 687.803 371.49C680.411 364.102 674.551 355.328 670.559 345.67C666.567 336.013 664.522 325.662 664.541 315.209L664.714 -134.568C664.716 -145.018 666.78 -155.368 670.787 -165.025C674.794 -174.682 680.666 -183.458 688.067 -190.85C695.468 -198.243 704.253 -204.107 713.92 -208.108C723.587 -212.108 733.946 -214.168 744.405 -214.167C754.867 -214.183 765.227 -212.137 774.892 -208.146C784.557 -204.155 793.337 -198.298 800.729 -190.91C808.122 -183.522 813.982 -174.748 817.973 -165.09C821.965 -155.433 824.01 -145.082 823.991 -134.629L823.819 315.148C823.823 325.6 821.765 335.953 817.76 345.614C813.756 355.274 807.884 364.053 800.482 371.446C793.079 378.84 784.291 384.704 774.621 388.703C764.951 392.701 754.589 394.755 744.127 394.747Z" fill="#4DC1BD"/>
<path fill-rule="evenodd" clip-rule="evenodd" d="M664.691 123.874L800.218 259.411C808.165 267.213 814.373 276.605 818.436 286.973C818.836 287.995 819.215 289.025 819.572 290.06C823.077 299.035 825 308.794 825 318.999C825 363.182 788.959 398.999 744.5 398.999C700.041 398.999 664 363.182 664 318.999C664 315.474 664.23 312.002 664.675 308.597L664.691 123.874Z" fill="#28B24B"/>
</svg>
