<svg width="90" height="90" viewBox="0 0 90 90" fill="none" xmlns="http://www.w3.org/2000/svg">
<path d="M9.30123 5.18799C7.12312 5.18799 5.35107 6.96232 5.35107 9.14307C5.35107 11.3238 7.12312 13.0981 9.30123 13.0981C11.4793 13.0981 13.2512 11.3238 13.2512 9.14307C13.2512 6.96232 11.4793 5.18799 9.30123 5.18799ZM9.30123 10.4614C8.57701 10.4614 7.98779 9.8701 7.98779 9.14307C7.98779 8.41603 8.57701 7.82471 9.30123 7.82471C10.0253 7.82471 10.6145 8.41603 10.6145 9.14307C10.6145 9.8701 10.0253 10.4614 9.30123 10.4614Z" fill="#828282"/>
<path d="M20.705 5.18799C18.5269 5.18799 16.7549 6.96232 16.7549 9.14307C16.7549 11.3238 18.5269 13.0981 20.705 13.0981C22.8831 13.0981 24.655 11.3238 24.655 9.14307C24.655 6.96232 22.8831 5.18799 20.705 5.18799ZM20.705 10.4614C19.9808 10.4614 19.3916 9.8701 19.3916 9.14307C19.3916 8.41603 19.9808 7.82471 20.705 7.82471C21.4291 7.82471 22.0183 8.41603 22.0183 9.14307C22.0183 9.8701 21.4291 10.4614 20.705 10.4614Z" fill="#828282"/>
<path d="M31.7797 5.18799C29.6016 5.18799 27.8296 6.96232 27.8296 9.14307C27.8296 11.3238 29.6016 13.0981 31.7797 13.0981C33.9579 13.0981 35.7297 11.3238 35.7297 9.14307C35.7297 6.96232 33.9579 5.18799 31.7797 5.18799ZM31.7797 10.4614C31.0555 10.4614 30.4663 9.8701 30.4663 9.14307C30.4663 8.41603 31.0555 7.82471 31.7797 7.82471C32.5038 7.82471 33.093 8.41603 33.093 9.14307C33.093 9.8701 32.5038 10.4614 31.7797 10.4614Z" fill="#828282"/>
<path d="M80.3998 5.18799H43.5566C41.3785 5.18799 39.6064 6.96232 39.6064 9.14307C39.6064 11.3238 41.3785 13.0981 43.5566 13.0981H80.3998C82.5779 13.0981 84.35 11.3238 84.35 9.14307C84.35 6.96232 82.5778 5.18799 80.3998 5.18799ZM80.3998 10.4614H43.5566C42.8324 10.4614 42.2432 9.8701 42.2432 9.14307C42.2432 8.41603 42.8324 7.82471 43.5566 7.82471H80.3998C81.124 7.82471 81.7133 8.41603 81.7133 9.14307C81.7133 9.8701 81.124 10.4614 80.3998 10.4614Z" fill="#828282"/>
<path d="M7.26367 72.2976H14.2348C14.9631 72.2976 15.5532 71.7075 15.5532 70.9792C15.5532 70.251 14.9631 69.6609 14.2348 69.6609H7.26367C6.53541 69.6609 5.94531 70.251 5.94531 70.9792C5.94531 71.7075 6.53559 72.2976 7.26367 72.2976Z" fill="#828282"/>
<path d="M7.15137 78.0374H19.7747C20.503 78.0374 21.0931 77.4473 21.0931 76.719C21.0931 75.9907 20.503 75.4006 19.7747 75.4006H7.15137C6.42311 75.4006 5.83301 75.9907 5.83301 76.719C5.83301 77.4473 6.42311 78.0374 7.15137 78.0374Z" fill="#828282"/>
<path d="M38.8008 72.2976H45.7719C46.5002 72.2976 47.0903 71.7075 47.0903 70.9792C47.0903 70.251 46.5002 69.6609 45.7719 69.6609H38.8008C38.0725 69.6609 37.4824 70.251 37.4824 70.9792C37.4824 71.7075 38.0727 72.2976 38.8008 72.2976Z" fill="#828282"/>
<path d="M38.6885 78.0374H51.3119C52.0401 78.0374 52.6302 77.4473 52.6302 76.719C52.6302 75.9907 52.0401 75.4006 51.3119 75.4006H38.6885C37.9602 75.4006 37.3701 75.9907 37.3701 76.719C37.3701 77.4473 37.9602 78.0374 38.6885 78.0374Z" fill="#828282"/>
<path d="M70.3384 72.2976H77.3093C78.0376 72.2976 78.6277 71.7075 78.6277 70.9792C78.6277 70.251 78.0376 69.6609 77.3093 69.6609H70.3384C69.6101 69.6609 69.02 70.251 69.02 70.9792C69.02 71.7075 69.6103 72.2976 70.3384 72.2976Z" fill="#828282"/>
<path d="M70.2256 78.0374H82.849C83.5772 78.0374 84.1673 77.4473 84.1673 76.719C84.1673 75.9907 83.5772 75.4006 82.849 75.4006H70.2256C69.4973 75.4006 68.9072 75.9907 68.9072 76.719C68.9072 77.4473 69.4973 78.0374 70.2256 78.0374Z" fill="#828282"/>
<path d="M83.4082 37.6211C87.043 37.6211 90 34.6641 90 31.0293V6.5957C90 2.9609 87.043 0.00390625 83.4082 0.00390625H6.5918C2.95699 0.00390625 0 2.9609 0 6.5957V31.0293C0 34.6641 2.95699 37.6211 6.5918 37.6211H12.1446V43.4442C10.3143 44.0085 8.98049 45.7156 8.98049 47.7285C8.98049 49.7414 10.3143 51.4484 12.1446 52.0128V57.6276H4.0551C1.81916 57.6275 0 59.4099 0 61.6008V63.4609C0 64.1892 0.590098 64.7793 1.31836 64.7793C2.04662 64.7793 2.63672 64.1892 2.63672 63.4609V61.6008C2.63672 60.8639 3.27305 60.2642 4.0551 60.2642H17.5261C17.7272 60.2642 17.9218 60.3413 18.0642 60.4797L24.0885 66.2873C24.2177 66.4132 24.2891 66.5768 24.2891 66.7487V86.0258C24.2891 86.7627 23.6528 87.3624 22.8707 87.3624H4.0551C3.27305 87.3624 2.63672 86.7628 2.63672 86.0258V69.46C2.63672 68.7317 2.04662 68.1416 1.31836 68.1416C0.590098 68.1416 0 68.7317 0 69.46V86.0258C0 88.2167 1.81916 89.9992 4.0551 89.9992H22.8705C25.1067 89.9992 26.9256 88.2167 26.9256 86.0258V66.7487C26.9256 65.8718 26.5616 65.0147 25.9226 64.3933L19.8979 58.5853C19.2625 57.9676 18.4201 57.6276 17.5261 57.6276H14.7813V52.0128C16.6115 51.4486 17.9453 49.7414 17.9453 47.7285C17.9453 45.7156 16.6115 44.0086 14.7813 43.4442V37.6211H22.252C22.9802 37.6211 23.5703 37.031 23.5703 36.3027C23.5703 35.5745 22.9802 34.9844 22.252 34.9844H6.5918C4.41105 34.9844 2.63672 33.21 2.63672 31.0293V18.373H87.3633V31.0293C87.3633 33.21 85.5889 34.9844 83.4082 34.9844H28.4043C27.6761 34.9844 27.086 35.5745 27.086 36.3027C27.086 37.031 27.6761 37.6211 28.4043 37.6211H43.6816V57.6275H35.5922C33.3561 57.6275 31.5371 59.4099 31.5371 61.6008V86.0258C31.5371 88.2167 33.3563 89.9992 35.5922 89.9992H42.7148C43.4431 89.9992 44.0332 89.4091 44.0332 88.6808C44.0332 87.9525 43.4431 87.3624 42.7148 87.3624H35.5922C34.8101 87.3624 34.1738 86.7628 34.1738 86.0258V61.6008C34.1738 60.8639 34.8101 60.2642 35.5922 60.2642H49.0634C49.2643 60.2642 49.459 60.3413 49.6014 60.4797L55.6258 66.2875C55.755 66.4132 55.8262 66.5768 55.8262 66.7487V86.0258C55.8262 86.7627 55.1899 87.3624 54.4078 87.3624H48.8672C48.1389 87.3624 47.5488 87.9525 47.5488 88.6808C47.5488 89.4091 48.1389 89.9992 48.8672 89.9992H54.4078C56.6439 89.9992 58.4629 88.2167 58.4629 86.0258V66.7487C58.4629 65.8716 58.0989 65.0143 57.4599 64.3933L51.435 58.5849C50.7996 57.9676 49.9574 57.6276 49.0635 57.6276H46.3184V37.6211H75.2187V43.4442C73.3885 44.0085 72.0547 45.7156 72.0547 47.7285C72.0547 49.7414 73.3885 51.4484 75.2187 52.0128V57.6276H67.1293C64.8932 57.6276 63.0742 59.4101 63.0742 61.601V86.026C63.0742 88.2169 64.8933 89.9993 67.1293 89.9993H85.9447C88.1808 89.9993 89.9998 88.2169 89.9998 86.026V82.2697C89.9998 81.5414 89.4097 80.9513 88.6815 80.9513C87.9532 80.9513 87.3631 81.5414 87.3631 82.2697V86.026C87.3631 86.7628 86.7268 87.3626 85.9447 87.3626H67.1295C66.3474 87.3626 65.7111 86.763 65.7111 86.026V61.6008C65.7111 60.8639 66.3474 60.2642 67.1295 60.2642H80.6006C80.8017 60.2642 80.9963 60.3413 81.1387 60.4797L87.1631 66.2875C87.2923 66.4132 87.3635 66.5768 87.3635 66.7487V76.1172C87.3635 76.8455 87.9536 77.4355 88.6818 77.4355C89.4101 77.4355 90.0002 76.8455 90.0002 76.1172V66.7487C90.0002 65.8716 89.6361 65.0143 88.9972 64.3933L82.9726 58.5853C82.3372 57.9676 81.4948 57.6276 80.6008 57.6276H77.8558V52.0128C79.686 51.4486 81.0199 49.7414 81.0199 47.7285C81.0199 45.7156 79.686 44.0086 77.8558 43.4442V37.6211H83.4082ZM13.4629 49.5742C12.4451 49.5742 11.6172 48.7463 11.6172 47.7285C11.6172 46.7107 12.4451 45.8828 13.4629 45.8828C14.4807 45.8828 15.3086 46.7107 15.3086 47.7285C15.3086 48.7463 14.4807 49.5742 13.4629 49.5742ZM2.63672 15.7363V6.5957C2.63672 4.41496 4.41105 2.64062 6.5918 2.64062H83.4082C85.5889 2.64062 87.3633 4.41496 87.3633 6.5957V15.7363H2.63672ZM76.5371 49.5742C75.5193 49.5742 74.6914 48.7463 74.6914 47.7285C74.6914 46.7107 75.5193 45.8828 76.5371 45.8828C77.5549 45.8828 78.3828 46.7107 78.3828 47.7285C78.3828 48.7463 77.5549 49.5742 76.5371 49.5742Z" fill="#828282"/>
</svg>
